<svg width="106" height="41" viewBox="0 0 106 41" fill="none" xmlns="http://www.w3.org/2000/svg">
<path d="M7.99212 6.73601V40H0.120117V6.73601H7.99212ZM27.0961 6.73601L16.4881 21.664L27.9601 40H18.8401L8.23212 22.24L18.7921 6.73601H27.0961Z" fill="#F0F0F0"/>
<path d="M50.1852 32.608C50.1852 33.568 50.3132 34.272 50.5692 34.72C50.8572 35.168 51.3052 35.504 51.9132 35.728L50.3292 40.672C48.7612 40.544 47.4812 40.208 46.4892 39.664C45.4972 39.088 44.7292 38.192 44.1852 36.976C42.5212 39.536 39.9612 40.816 36.5052 40.816C33.9772 40.816 31.9612 40.08 30.4572 38.608C28.9532 37.136 28.2012 35.216 28.2012 32.848C28.2012 30.064 29.2252 27.936 31.2732 26.464C33.3212 24.992 36.2812 24.256 40.1532 24.256H42.7452V23.152C42.7452 21.648 42.4252 20.624 41.7852 20.08C41.1452 19.504 40.0252 19.216 38.4252 19.216C37.5932 19.216 36.5852 19.344 35.4012 19.6C34.2172 19.824 33.0012 20.144 31.7532 20.56L30.0252 15.568C31.6252 14.96 33.2572 14.496 34.9212 14.176C36.6172 13.856 38.1852 13.696 39.6252 13.696C43.2732 13.696 45.9452 14.448 47.6412 15.952C49.3372 17.456 50.1852 19.712 50.1852 22.72V32.608ZM38.7132 35.392C40.4412 35.392 41.7852 34.576 42.7452 32.944V28.432H40.8732C39.1452 28.432 37.8492 28.736 36.9852 29.344C36.1532 29.952 35.7372 30.896 35.7372 32.176C35.7372 33.2 35.9932 34 36.5052 34.576C37.0492 35.12 37.7852 35.392 38.7132 35.392Z" fill="#F0F0F0"/>
<path d="M77.7301 40H71.1541L70.8181 36.784C68.9621 39.472 66.3861 40.816 63.0901 40.816C60.7541 40.816 58.9781 40.112 57.7621 38.704C56.5781 37.296 55.9861 35.328 55.9861 32.8V14.512H63.5701V31.84C63.5701 33.088 63.7621 33.968 64.1461 34.48C64.5621 34.96 65.1861 35.2 66.0181 35.2C67.6181 35.2 68.9941 34.208 70.1461 32.224V14.512H77.7301V40Z" fill="#F0F0F0"/>
<path d="M105.919 26.752C105.919 27.808 105.871 28.72 105.775 29.488H89.9829C90.2389 31.632 90.8469 33.136 91.8069 34C92.7669 34.864 94.0949 35.296 95.7909 35.296C96.8149 35.296 97.8069 35.12 98.7669 34.768C99.7269 34.384 100.767 33.808 101.887 33.04L105.007 37.264C102.031 39.632 98.7189 40.816 95.0709 40.816C90.9429 40.816 87.7749 39.6 85.5669 37.168C83.3589 34.736 82.2549 31.472 82.2549 27.376C82.2549 24.784 82.7189 22.464 83.6469 20.416C84.5749 18.336 85.9349 16.704 87.7269 15.52C89.5189 14.304 91.6629 13.696 94.1589 13.696C97.8389 13.696 100.719 14.848 102.799 17.152C104.879 19.456 105.919 22.656 105.919 26.752ZM98.4789 24.592C98.4149 20.688 97.0389 18.736 94.3509 18.736C93.0389 18.736 92.0149 19.216 91.2789 20.176C90.5749 21.136 90.1429 22.72 89.9829 24.928H98.4789V24.592ZM87.8709 10.24L85.1829 7.12L91.9509 0.544006H96.6069L103.375 7.12L100.687 10.24L94.3029 5.82401L87.8709 10.24Z" fill="#F0F0F0"/>
</svg>
